PathFileType	4	(X/Y/Z)	s09c0302.trc
DataRate	CameraRate	NumFrames	NumMarkers	Units	OrigDataRate	OrigDataStartFrame	OrigNumFrames
200	200	5	50	mm	200	1250	2000
Frame#	Time	racr			lacr			c7			jug			rlel			rdr			llel			ldr			s2			lic			ric			lasi			rasi			rpsi			lpsi			rgt			lgt			rth1			rth2			rth3			rth4			rlfc			rmfc			rsh1			rsh2			rsh3			rsh4			rlmal			rmmal			rcal			rtoe			rmt5			lth1			lth2			lth4			lth3			llfc			lmfc			llmal			lmmal			lcal			lmt5			lsh1			lsh2			lsh3			lsh4			ltoe			SBIKE			LBIKE			RBIKE			
		X1	Y1	Z1	X2	Y2	Z2	X3	Y3	Z3	X4	Y4	Z4	X5	Y5	Z5	X6	Y6	Z6	X7	Y7	Z7	X8	Y8	Z8	X9	Y9	Z9	X10	Y10	Z10	X11	Y11	Z11	X12	Y12	Z12	X13	Y13	Z13	X14	Y14	Z14	X15	Y15	Z15	X16	Y16	Z16	X17	Y17	Z17	X18	Y18	Z18	X19	Y19	Z19	X20	Y20	Z20	X21	Y21	Z21	X22	Y22	Z22	X23	Y23	Z23	X24	Y24	Z24	X25	Y25	Z25	X26	Y26	Z26	X27	Y27	Z27	X28	Y28	Z28	X29	Y29	Z29	X30	Y30	Z30	X31	Y31	Z31	X32	Y32	Z32	X33	Y33	Z33	X34	Y34	Z34	X35	Y35	Z35	X36	Y36	Z36	X37	Y37	Z37	X38	Y38	Z38	X39	Y39	Z39	X40	Y40	Z40	X41	Y41	Z41	X42	Y42	Z42	X43	Y43	Z43	X44	Y44	Z44	X45	Y45	Z45	X46	Y46	Z46	X47	Y47	Z47	X48	Y48	Z48	X49	Y49	Z49	X50	Y50	Z50	
1250	6.2500	649.392165	1384.322582	-50.115981	732.996355	1322.464085	-383.172739	676.082437	1406.603955	-222.415279	690.125433	1272.966794	-203.040394	590.832009	1115.189962	-30.379758	719.280313	890.014191	-64.499479	614.898289	1092.595892	-502.480906	722.294742	879.370550	-460.258430	215.983204	1168.690415	-297.770136	401.760639	1124.444688	-403.325992	329.539871	1197.452067	-129.709784	420.367453	1072.671749	-360.547860	371.809894	1136.576517	-125.222201	241.898783	1206.326484	-250.599308	272.952928	1192.360247	-354.621768	301.089745	1069.406623	-70.351371	336.120370	999.141903	-441.933767	419.690702	988.613342	-63.384131	503.932975	965.477646	-61.584881	562.702570	899.241964	-57.583846	522.646905	989.558739	-82.404828	631.898930	815.677384	-81.705591	626.892479	796.846329	-184.579321	546.635568	754.944787	-61.092529	499.277049	679.988282	-77.574656	421.391970	640.578163	-80.894096	520.562274	662.425332	-105.364639	344.894613	567.022903	-86.369600	353.799756	579.641613	-162.466808	257.748549	572.616696	-126.543336	491.155036	444.737470	-128.893703	410.467328	468.990715	-65.580932	349.848853	873.310648	-436.776174	379.651383	794.276983	-427.387781	414.240695	797.419202	-411.087914	364.198986	705.123981	-420.236964	352.069284	608.580389	-404.747214	356.774446	590.778409	-306.327658	159.384613	298.277057	-413.153917	184.370925	295.938288	-346.695699	88.983459	303.818854	-374.760049	202.931205	170.492584	-431.051034	294.412403	526.608764	-429.471580	272.305838	443.163052	-421.649921	209.914974	380.022574	-419.734019	296.828694	431.700699	-392.231797	289.896238	136.459721	-362.387180	-65.241607	851.464407	-241.931096	21.027949	83.694893	-442.437004	21.014550	84.081085	-44.096840	
1251	6.2550	649.719126	1382.903035	-48.106595	734.076521	1322.745795	-381.028165	677.256107	1405.829669	-219.504644	690.197601	1271.990280	-201.265550	589.300990	1114.092193	-29.874246	719.080884	890.007948	-64.456531	616.896056	1093.656937	-501.674467	722.041563	879.303628	-459.868260	216.502700	1169.557964	-299.577066	403.174025	1126.767359	-404.664027	329.478484	1197.524681	-130.970548	421.698419	1074.438985	-361.992141	371.831500	1136.885019	-126.413219	242.486489	1207.365591	-251.985026	274.026109	1193.864167	-355.870015	300.298518	1068.301048	-72.350879	339.106402	1000.510030	-444.155437	417.888437	986.253009	-64.579789	502.039776	962.498402	-61.458018	560.151743	895.639183	-57.682956	521.290890	986.866036	-81.633621	629.799443	812.876394	-81.214589	625.647379	794.393629	-183.928394	545.887133	749.607897	-60.756716	500.108898	674.187956	-78.090004	422.981794	633.264293	-81.757638	521.712314	657.289624	-105.952576	348.328750	558.236374	-87.735694	356.959685	570.923485	-163.866218	260.332359	560.776397	-128.635896	499.376849	442.643280	-128.560744	417.305077	463.680209	-65.614467	354.099312	874.611897	-438.038067	384.530982	795.901938	-428.208682	419.038307	799.339808	-411.834758	369.905821	706.565299	-421.150638	356.878784	609.663817	-406.329631	361.947984	591.719102	-308.375866	153.979985	305.553498	-413.299146	179.096163	302.693249	-346.550634	83.930437	312.531446	-374.393655	194.720024	176.850196	-430.960472	296.612376	529.281909	-430.855222	271.689615	446.593163	-422.541664	207.215288	385.650899	-420.173432	295.898307	434.468588	-393.144498	280.886187	140.941369	-362.579704	-65.213983	851.485734	-241.845147	21.012747	83.724189	-442.415265	21.008453	84.081411	-44.103783	
1252	6.2600	650.305903	1381.376119	-46.175830	734.994812	1323.077236	-378.963740	678.514782	1404.947295	-216.566332	690.240032	1270.888958	-199.662159	587.906871	1112.972205	-29.269870	718.893386	889.929076	-64.362388	619.195503	1094.386562	-500.366081	722.366276	879.365811	-459.973398	217.060900	1170.440101	-301.158451	404.480400	1129.022943	-405.880325	329.629152	1197.578240	-131.785266	422.666482	1076.197428	-363.739063	371.873048	1136.907323	-127.530690	241.892520	1208.828068	-254.311469	275.166350	1195.789183	-357.136792	299.559533	1067.001160	-74.390790	341.723619	1002.044962	-446.027712	416.144175	983.613410	-65.662943	500.076033	959.031205	-61.396636	557.401526	891.703294	-57.798401	519.949980	983.627811	-80.908371	626.987352	809.652514	-80.689406	623.891116	791.113232	-183.377434	544.873960	744.090896	-60.946050	500.408971	667.592985	-78.541425	424.181554	625.079996	-82.397654	522.310133	651.430450	-106.672231	351.902577	548.231821	-88.878961	359.452283	561.814797	-164.686994	263.761565	548.158191	-130.107710	506.910233	439.861786	-128.773537	424.247373	457.536343	-65.779887	358.473428	875.942174	-439.109918	389.710937	797.695680	-428.843735	424.139945	801.649941	-412.456226	376.206889	708.086779	-421.628610	362.575999	610.988605	-407.850696	367.956265	592.573001	-310.374347	149.192425	313.315701	-413.451206	174.655671	309.823151	-346.380039	79.508785	321.869238	-373.982755	187.089968	183.727686	-430.864944	299.562532	532.099240	-432.005000	271.782274	450.420216	-423.182667	205.245566	391.803649	-420.520696	295.648940	437.531342	-393.805131	272.166489	145.485677	-362.455970	-65.176502	851.524551	-241.770647	21.014216	83.768834	-442.419432	21.016656	84.089311	-44.102374	
1253	6.2650	651.082588	1379.856418	-44.289627	735.672664	1323.689660	-376.959114	679.472209	1403.971180	-213.373986	690.517841	1269.749183	-197.909079	586.791980	1111.899861	-28.750344	718.746022	889.800009	-64.227540	620.809757	1095.269526	-499.702033	722.708154	879.422860	-460.006491	217.661515	1171.325216	-302.519448	405.594043	1131.298721	-407.075188	329.823696	1197.348976	-132.443887	423.754798	1078.752248	-364.938162	372.041482	1136.630085	-128.590129	242.485354	1209.674806	-254.839000	276.476575	1197.312642	-357.930527	298.997890	1065.446485	-76.341167	344.256645	1003.597267	-447.432735	414.518565	980.880411	-66.601830	498.037998	955.187606	-61.409623	554.487410	887.156435	-58.167859	518.658078	980.238391	-79.987149	623.483180	805.605707	-80.059567	621.718055	787.197435	-182.936431	543.061978	737.633283	-60.683279	500.386150	660.433369	-78.770838	425.079891	616.299354	-82.699488	522.569155	644.946214	-107.116601	355.188105	537.979925	-89.256907	361.869513	552.011637	-165.187783	266.239681	534.542065	-131.175687	513.777408	436.353142	-128.488448	430.828114	450.721829	-65.491580	362.902124	877.299848	-440.109413	395.120676	799.540110	-429.316594	429.461522	803.945531	-412.933932	382.923676	709.863795	-422.264988	369.129478	612.225955	-409.186368	374.574709	593.425138	-312.319575	145.204330	321.532771	-413.602121	170.851744	317.313912	-346.163649	75.889892	331.768840	-373.843155	179.973019	191.074724	-430.843168	303.078723	535.003869	-432.720942	272.593877	454.500230	-423.747990	203.986974	398.304925	-420.886604	296.122451	441.185213	-394.769811	263.268109	148.971925	-360.276027	-65.146918	851.548208	-241.730463	21.027218	83.787788	-442.430822	21.013560	84.090637	-44.093716	
1254	6.2700	652.025917	1378.332634	-42.526458	736.537723	1324.072541	-374.975264	680.485934	1402.913442	-210.314264	691.130364	1268.592311	-196.058163	585.830164	1110.841669	-28.133840	718.674039	889.715430	-64.095971	622.258737	1095.968499	-499.051132	722.772894	879.407144	-459.692628	218.308257	1172.201821	-303.665244	406.591622	1133.423863	-408.070051	330.095388	1196.839171	-132.911132	424.720699	1080.362361	-366.691193	372.194291	1136.078659	-129.506920	243.386554	1210.543905	-255.156732	277.404991	1198.944357	-358.431617	298.400040	1063.797133	-78.271593	346.311239	1005.348784	-449.016132	412.908815	977.958950	-67.384517	495.897392	951.015907	-61.563288	551.560022	882.168107	-58.588500	517.267039	976.614354	-79.040052	619.956611	800.399733	-80.001690	619.011571	782.504288	-182.623714	541.119336	730.862994	-60.443161	500.017342	652.679143	-78.651123	425.954911	606.755159	-82.902280	523.189236	637.903247	-107.140975	358.173278	526.876493	-89.297584	364.196669	541.736578	-165.327540	268.960964	520.310065	-131.153138	520.302587	431.774699	-127.603438	436.802496	442.815065	-65.000555	367.381392	878.703268	-441.021249	400.669834	801.495723	-429.573355	434.928774	806.541639	-413.294081	389.942859	711.706352	-422.805140	376.341529	613.555908	-410.340660	381.561757	594.501078	-314.094885	141.910084	330.127702	-413.806429	167.762034	325.165671	-346.045520	72.986926	342.175922	-373.551165	173.323905	198.747500	-430.729966	307.408045	538.186386	-433.614591	273.995565	458.744796	-424.312999	203.346894	405.309229	-421.299787	297.035610	444.957498	-395.230894	255.355315	154.792290	-360.712350	-65.074457	851.558127	-241.642413	21.049907	83.819986	-442.429909	21.032156	84.095219	-44.082603	
